<svg xmlns="http://www.w3.org/2000/svg" width="15.2634in" height="9.5in" viewBox="0 0 4579.02 2850" role="img" aria-labelledby="wrap-title wrap-desc">
  <title id="wrap-title">Wraparound cover for Datalevin, 450 pages, KDP white paper</title>
  <desc id="wrap-desc">A full print cover with back cover, 1.0134 inch spine, and front cover for a 7 by 9.25 inch Datalevin book with 0.125 inch bleed.</desc>

  <!--
    Draft production assumptions:
    trim: 7in x 9.25in
    bleed: 0.125in
    page count: 450
    paper: KDP black-and-white white paper
    spine: 450 * 0.002252in = 1.0134in
    full cover: 15.2634in x 9.5in

    Coordinate system uses 300 units per inch.
    bleed = 37.5
    back trim:  x=37.5, width=2100
    spine:      x=2137.5, width=304.02
    front trim: x=2441.52, width=2100
  -->

  <defs>
    <linearGradient id="wrap-bg" x1="0" y1="0" x2="0" y2="1">
      <stop offset="0" stop-color="#0e2942"/>
      <stop offset="0.56" stop-color="#0a1c30"/>
      <stop offset="1" stop-color="#06101c"/>
    </linearGradient>
    <radialGradient id="wrap-halo" cx="0.5" cy="0.5" r="0.5">
      <stop offset="0" stop-color="#2bc6a0" stop-opacity="0.34"/>
      <stop offset="0.48" stop-color="#1f9e7e" stop-opacity="0.12"/>
      <stop offset="1" stop-color="#1f9e7e" stop-opacity="0"/>
    </radialGradient>
    <filter id="grain" x="0%" y="0%" width="100%" height="100%">
      <feTurbulence type="fractalNoise" baseFrequency="0.5" numOctaves="2" seed="11" stitchTiles="stitch"/>
      <feColorMatrix type="saturate" values="0"/>
    </filter>
    <style>
      .cover-cream { fill: #f4f6f2; }
      .cover-muted { fill: #d7e1ea; }
      .cover-soft { fill: #8aa0b3; }
      .cover-mint { fill: #7ad9b9; }
      .cover-gold { fill: #d7c16f; }
      .cover-title { fill: #f4f6f2; font-family: Inter, Avenir Next, Helvetica, Arial, sans-serif; font-size: 62px; font-weight: 760; }
      .cover-heading { fill: #7ad9b9; font-family: Inter, Avenir Next, Helvetica, Arial, sans-serif; font-size: 30px; font-weight: 760; letter-spacing: 5px; }
      .cover-body { fill: #d7e1ea; font-family: Inter, Avenir Next, Helvetica, Arial, sans-serif; font-size: 39px; font-weight: 430; }
      .cover-bullet { fill: #f4f6f2; font-family: Inter, Avenir Next, Helvetica, Arial, sans-serif; font-size: 38px; font-weight: 560; }
      .cover-small { fill: #9db0c1; font-family: Inter, Avenir Next, Helvetica, Arial, sans-serif; font-size: 30px; font-weight: 430; }
      .cover-rule { fill: #7ad9b9; }
      .spine-title { fill: #f4f6f2; font-family: Inter, Avenir Next, Helvetica, Arial, sans-serif; font-size: 116px; font-weight: 800; letter-spacing: -1px; }
      .spine-subtitle { fill: #d7e1ea; font-family: Inter, Avenir Next, Helvetica, Arial, sans-serif; font-size: 35px; font-weight: 620; letter-spacing: 1.8px; }
      .spine-author { fill: #d7c16f; font-family: Inter, Avenir Next, Helvetica, Arial, sans-serif; font-size: 38px; font-weight: 760; letter-spacing: 2.4px; }
      .spine-imprint { fill: #d7c16f; font-family: Inter, Avenir Next, Helvetica, Arial, sans-serif; font-size: 24px; font-weight: 690; letter-spacing: 4px; }
    </style>
  </defs>

  <rect x="0" y="0" width="4579.02" height="2850" fill="url(#wrap-bg)"/>
  <rect class="cover-mint" x="0" y="0" width="4579.02" height="10"/>

  <!-- Back cover -->
  <circle cx="1087.5" cy="1620" r="740" fill="url(#wrap-halo)"/>
  <circle cx="1087.5" cy="1620" r="540" fill="none" stroke="#38566e" stroke-width="2.3" stroke-dasharray="3 16" opacity="0.34"/>
  <circle cx="1087.5" cy="1620" r="238" fill="#7ad9b9" opacity="0.06"/>

  <text class="cover-heading" x="252" y="284">DATABASES · DATALOG · AGENT MEMORY</text>
  <text class="cover-title" x="252" y="410">One database for facts, logic,</text>
  <text class="cover-title" x="252" y="486">search, graph, and durable memory.</text>
  <rect class="cover-rule" x="252" y="548" width="260" height="6" rx="3"/>

  <text class="cover-body" x="252" y="672">
    <tspan x="252" dy="0">Modern applications increasingly need more than rows,</tspan>
    <tspan x="252" dy="58">documents, or a separate search stack. They need durable</tspan>
    <tspan x="252" dy="58">facts, expressive queries, graph-shaped relationships,</tspan>
    <tspan x="252" dy="58">full-text search, vector retrieval, and reliable memory for</tspan>
    <tspan x="252" dy="58">intelligent agents.</tspan>
  </text>

  <text class="cover-body" x="252" y="1042">
    <tspan x="252" dy="0">Datalevin brings those capabilities into one compact</tspan>
    <tspan x="252" dy="58">open-source database, six years in the making. Built on</tspan>
    <tspan x="252" dy="58">LMDB and Datalog, it gives application developers a</tspan>
    <tspan x="252" dy="58">practical path from local embedded storage to production</tspan>
    <tspan x="252" dy="58">systems that combine logic, search, and operational</tspan>
    <tspan x="252" dy="58">simplicity.</tspan>
  </text>

  <text class="cover-heading" x="252" y="1472">THIS BOOK TEACHES YOU TO</text>
  <text class="cover-bullet" x="286" y="1572">
    <tspan x="286" dy="0">model data as entities, attributes, and datoms</tspan>
    <tspan x="286" dy="58">write Datalog queries, rules, transactions, and pull patterns</tspan>
    <tspan x="286" dy="58">design relational, graph, document, vector, and hybrid models</tspan>
    <tspan x="286" dy="58">build persistent agent memory from episodes, facts, and recall</tspan>
  </text>
  <g fill="#7ad9b9">
    <circle cx="252" cy="1560" r="8"/>
    <circle cx="252" cy="1618" r="8"/>
    <circle cx="252" cy="1676" r="8"/>
    <circle cx="252" cy="1734" r="8"/>
  </g>

  <text class="cover-heading" x="252" y="1934">ABOUT THE AUTHOR</text>
  <text class="cover-small" x="252" y="2014">
    <tspan x="252" dy="0">Dr. Huahai Yang is the creator and maintainer of Datalevin.</tspan>
    <tspan x="252" dy="45">His work on Datalevin grew from practical needs at Juji, a</tspan>
    <tspan x="252" dy="45">conversational agent company he co-founded, where intelligent</tspan>
    <tspan x="252" dy="45">applications required fast retrieval, persistent memory, and</tspan>
    <tspan x="252" dy="45">flexible representations of user and agent state. He holds a</tspan>
    <tspan x="252" dy="45">Ph.D. from the University of Michigan, Ann Arbor, and has</tspan>
    <tspan x="252" dy="45">worked as a faculty member at University at Albany, SUNY, and</tspan>
    <tspan x="252" dy="45">as a research staff member at IBM Almaden Research Center.</tspan>
  </text>

  <text class="spine-imprint" x="252" y="2644">CALERO CREEK PRESS</text>
  <rect x="1462.5" y="2377.5" width="600" height="360" fill="#ffffff"/>

  <!-- Spine -->
  <rect x="2137.5" y="0" width="304.02" height="2850" fill="#071525" opacity="0.82"/>
  <!-- spine edge hairlines removed: they could telegraph as a defect on a binding shift -->
  <rect class="cover-mint" x="2137.5" y="0" width="304.02" height="10"/>
  <text class="spine-author" x="2289.51" y="214" text-anchor="middle">HUAHAI</text>
  <text class="spine-author" x="2289.51" y="264" text-anchor="middle">YANG</text>
  <g transform="translate(2289.51 1345) rotate(90)">
    <text class="spine-title" x="0" y="0" text-anchor="middle" dominant-baseline="central"><tspan fill="#f4f6f2">Data</tspan><tspan fill="#7ad9b9">levin</tspan></text>
    <text class="spine-subtitle" x="0" y="76" text-anchor="middle" dominant-baseline="central">LOGICAL AND INTELLIGENT DATABASES</text>
  </g>
  <g transform="translate(2250 2605) scale(0.09)">
    <path fill="#d7c16f" fill-rule="evenodd" d="M 437 0 L 285 22 L 155 70 L 54 148 L 9 223 L 0 312 L 28 424 L 170 601 L 49 900 L 25 1124 L 34 1150 L 76 1149 L 249 1091 L 436 1122 L 470 1172 L 446 1234 L 489 1247 L 524 1227 L 565 1238 L 599 1218 L 703 1215 L 638 1165 L 650 1098 L 767 1042 L 844 945 L 870 776 L 794 539 L 872 390 L 884 265 L 849 140 L 765 60 L 634 12 Z M 74 318 A 205 205 0 1 0 484 318 A 205 205 0 1 0 74 318 Z M 414 318 A 205 205 0 1 0 824 318 A 205 205 0 1 0 414 318 Z M 407 515 C 407 482 463 482 464 516 C 465 550 440 575 436 610 C 429 576 407 550 407 515 Z"/>
    <path fill="#d7c16f" d="M 56 168 L 212 -126 L 392 74 C 266 58 150 100 56 168 Z M 494 74 L 686 -126 L 836 168 C 742 100 620 58 494 74 Z"/>
    <g fill="none" stroke="#d7c16f" stroke-width="28" stroke-linecap="round">
      <path d="M279 236 L279 145 M337 260 L401 196 M361 318 L452 318 M337 376 L401 440 M279 400 L279 491 M221 376 L157 440 M197 318 L106 318 M221 260 L157 196"/>
      <path d="M619 236 L619 145 M677 260 L741 196 M701 318 L792 318 M677 376 L741 440 M619 400 L619 491 M561 376 L497 440 M537 318 L446 318 M561 260 L497 196"/>
    </g>
    <path fill="#d7c16f" fill-rule="evenodd" d="M 229 318 A 50 50 0 1 0 329 318 A 50 50 0 1 0 229 318 Z M 261 318 A 18 18 0 1 1 297 318 A 18 18 0 1 1 261 318 Z M 569 318 A 50 50 0 1 0 669 318 A 50 50 0 1 0 569 318 Z M 601 318 A 18 18 0 1 1 637 318 A 18 18 0 1 1 601 318 Z"/>
  </g>

  <!-- Front cover panel, embedded as vector artwork. -->
  <svg x="2441.52" y="0" width="2137.5" height="2850" viewBox="0 -37.5 2137.5 2850" preserveAspectRatio="xMidYMid meet">
    <defs>
      <linearGradient id="bg" x1="0" y1="0" x2="0" y2="1">
        <stop offset="0" stop-color="#0e2942"/>
        <stop offset="0.55" stop-color="#0a1c30"/>
        <stop offset="1" stop-color="#0a1828"/>
      </linearGradient>
      <radialGradient id="halo" cx="0.5" cy="0.5" r="0.5">
        <stop offset="0" stop-color="#2bc6a0" stop-opacity="0.42"/>
        <stop offset="0.45" stop-color="#1f9e7e" stop-opacity="0.16"/>
        <stop offset="1" stop-color="#1f9e7e" stop-opacity="0"/>
      </radialGradient>
      <radialGradient id="coreGlow" cx="0.5" cy="0.5" r="0.5">
        <stop offset="0" stop-color="#7ad9b9" stop-opacity="0.55"/>
        <stop offset="0.5" stop-color="#3fb79a" stop-opacity="0.18"/>
        <stop offset="1" stop-color="#3fb79a" stop-opacity="0"/>
      </radialGradient>
      <linearGradient id="hexGrad" x1="0" y1="0" x2="0" y2="1">
        <stop offset="0" stop-color="#3f7cba"/>
        <stop offset="1" stop-color="#234a78"/>
      </linearGradient>
      <linearGradient id="boltGrad" x1="0" y1="0" x2="0" y2="1">
        <stop offset="0" stop-color="#b9f3da"/>
        <stop offset="1" stop-color="#69d4b2"/>
      </linearGradient>
      <filter id="soft" x="-60%" y="-60%" width="220%" height="220%">
        <feGaussianBlur stdDeviation="40"/>
      </filter>
      <style>
        .cream { fill: #f4f6f2; }
        .mint  { fill: #7ad9b9; }
        .title { font-family: Inter, Avenir Next, Helvetica, Arial, sans-serif; font-size: 204px; font-weight: 800; letter-spacing: -2px; }
        .subtitle { fill: #d7e1ea; font-family: Inter, Avenir Next, Helvetica, Arial, sans-serif; font-size: 60px; font-weight: 600; }
        .kicker { fill: #7ad9b9; font-family: Inter, Avenir Next, Helvetica, Arial, sans-serif; font-size: 29px; font-weight: 760; letter-spacing: 7px; }
        .node   { fill: #f4f6f2; font-family: Inter, Avenir Next, Helvetica, Arial, sans-serif; font-size: 40px; font-weight: 720; }
        .nodesub{ fill: #8aa0b3; font-family: IBM Plex Mono, Menlo, Consolas, monospace; font-size: 23px; font-weight: 500; }
        .author { fill: #f4f6f2; font-family: Inter, Avenir Next, Helvetica, Arial, sans-serif; font-size: 56px; font-weight: 700; }
        .imprint{ fill: #d7c16f; font-family: Inter, Avenir Next, Helvetica, Arial, sans-serif; font-size: 28px; font-weight: 680; letter-spacing: 5px; }
        .orbit { fill: none; stroke: #38566e; stroke-width: 2.5; stroke-dasharray: 3 16; stroke-linecap: round; opacity: 0.6; }
        .hexring { fill: none; stroke: #9bead0; stroke-width: 5; opacity: 0.95; }
      </style>
    </defs>

    <rect x="0" y="-37.5" width="2137.5" height="2850" fill="url(#bg)"/>
    <rect class="mint" x="0" y="-37.5" width="2137.5" height="10"/>

    <text class="kicker" x="1050" y="296" text-anchor="middle">DATABASES · DATALOG · AGENT MEMORY</text>
    <text class="title" x="1050" y="540" text-anchor="middle"><tspan fill="#f4f6f2">Data</tspan><tspan fill="#7ad9b9">levin</tspan></text>
    <text class="subtitle" x="1050" y="648" text-anchor="middle">The Definitive Guide to</text>
    <text class="subtitle" x="1050" y="724" text-anchor="middle">Logical and Intelligent Databases</text>
    <rect class="mint" x="910" y="772" width="280" height="6" rx="3"/>

    <circle cx="1050" cy="1600" r="780" fill="url(#halo)"/>
    <circle cx="1050" cy="1600" r="470" fill="url(#coreGlow)"/>
    <circle cx="1050" cy="1600" r="232" fill="#7ad9b9" opacity="0.55" filter="url(#soft)"/>
    <circle class="orbit" cx="1050" cy="1600" r="560"/>

    <path d="M1050 1400 L1050 1040" stroke="#5b9bd5" stroke-width="3.5" opacity="0.7"/>
    <path d="M1223 1500 L1535 1320" stroke="#74d6b6" stroke-width="3.5" opacity="0.7"/>
    <path d="M1223 1700 L1535 1880" stroke="#34b3a0" stroke-width="3.5" opacity="0.7"/>
    <path d="M1050 1800 L1050 2160" stroke="#d28a62" stroke-width="3.5" opacity="0.7"/>
    <path d="M877 1700 L565 1880"  stroke="#7fb8e0" stroke-width="3.5" opacity="0.7"/>
    <path d="M877 1500 L565 1320"  stroke="#46c0a8" stroke-width="3.5" opacity="0.7"/>

    <circle cx="1050" cy="1040" r="26" fill="none" stroke="#5b9bd5" stroke-width="3" opacity="0.5"/>
    <circle cx="1050" cy="1040" r="14" fill="#5b9bd5"/>
    <text class="node" x="1050" y="984" text-anchor="middle">Datalog</text>
    <text class="nodesub" x="1050" y="1016" text-anchor="middle">logic query</text>

    <circle cx="1535" cy="1320" r="26" fill="none" stroke="#74d6b6" stroke-width="3" opacity="0.5"/>
    <circle cx="1535" cy="1320" r="14" fill="#74d6b6"/>
    <text class="node" x="1582" y="1312" text-anchor="start">Graph</text>
    <text class="nodesub" x="1582" y="1344" text-anchor="start">refs as edges</text>

    <circle cx="1535" cy="1880" r="26" fill="none" stroke="#34b3a0" stroke-width="3" opacity="0.5"/>
    <circle cx="1535" cy="1880" r="14" fill="#34b3a0"/>
    <text class="node" x="1582" y="1872" text-anchor="start">Search</text>
    <text class="nodesub" x="1582" y="1904" text-anchor="start">text + vector</text>

    <circle cx="1050" cy="2160" r="26" fill="none" stroke="#d28a62" stroke-width="3" opacity="0.5"/>
    <circle cx="1050" cy="2160" r="14" fill="#d28a62"/>
    <text class="node" x="1050" y="2226" text-anchor="middle">AI Memory</text>
    <text class="nodesub" x="1050" y="2258" text-anchor="middle">episodes + facts</text>

    <circle cx="565" cy="1880" r="26" fill="none" stroke="#7fb8e0" stroke-width="3" opacity="0.5"/>
    <circle cx="565" cy="1880" r="14" fill="#7fb8e0"/>
    <text class="node" x="518" y="1872" text-anchor="end">Key-Value</text>
    <text class="nodesub" x="518" y="1904" text-anchor="end">LMDB store</text>

    <circle cx="565" cy="1320" r="26" fill="none" stroke="#46c0a8" stroke-width="3" opacity="0.5"/>
    <circle cx="565" cy="1320" r="14" fill="#46c0a8"/>
    <text class="node" x="518" y="1312" text-anchor="end">Documents</text>
    <text class="nodesub" x="518" y="1344" text-anchor="end">idoc paths</text>

    <polygon fill="url(#hexGrad)" points="1050,1400 1223,1500 1223,1700 1050,1800 877,1700 877,1500"/>
    <polygon class="hexring" points="1050,1388 1233.6,1494 1233.6,1706 1050,1812 866.4,1706 866.4,1494"/>
    <g transform="translate(850 1400)">
      <path fill="url(#boltGrad)" d="M234 52 L118 224 H187 L162 347 L281 176 H210 Z"/>
    </g>

    <text class="author" x="1050" y="2438" text-anchor="middle">Huahai Yang</text>
    <rect class="mint" x="910" y="2500" width="280" height="6" rx="3"/>

    <g transform="translate(1008 2550) scale(0.096)">
      <path fill="#d7c16f" fill-rule="evenodd" d="M 437 0 L 285 22 L 155 70 L 54 148 L 9 223 L 0 312 L 28 424 L 170 601 L 49 900 L 25 1124 L 34 1150 L 76 1149 L 249 1091 L 436 1122 L 470 1172 L 446 1234 L 489 1247 L 524 1227 L 565 1238 L 599 1218 L 703 1215 L 638 1165 L 650 1098 L 767 1042 L 844 945 L 870 776 L 794 539 L 872 390 L 884 265 L 849 140 L 765 60 L 634 12 Z M 74 318 A 205 205 0 1 0 484 318 A 205 205 0 1 0 74 318 Z M 414 318 A 205 205 0 1 0 824 318 A 205 205 0 1 0 414 318 Z M 407 515 C 407 482 463 482 464 516 C 465 550 440 575 436 610 C 429 576 407 550 407 515 Z"/>
      <path fill="#d7c16f" d="M 56 168 L 212 -126 L 392 74 C 266 58 150 100 56 168 Z M 494 74 L 686 -126 L 836 168 C 742 100 620 58 494 74 Z"/>
      <g fill="none" stroke="#d7c16f" stroke-width="28" stroke-linecap="round">
        <path d="M279 236 L279 145 M337 260 L401 196 M361 318 L452 318 M337 376 L401 440 M279 400 L279 491 M221 376 L157 440 M197 318 L106 318 M221 260 L157 196"/>
        <path d="M619 236 L619 145 M677 260 L741 196 M701 318 L792 318 M677 376 L741 440 M619 400 L619 491 M561 376 L497 440 M537 318 L446 318 M561 260 L497 196"/>
      </g>
      <path fill="#d7c16f" fill-rule="evenodd" d="M 229 318 A 50 50 0 1 0 329 318 A 50 50 0 1 0 229 318 Z M 261 318 A 18 18 0 1 1 297 318 A 18 18 0 1 1 261 318 Z M 569 318 A 50 50 0 1 0 669 318 A 50 50 0 1 0 569 318 Z M 601 318 A 18 18 0 1 1 637 318 A 18 18 0 1 1 601 318 Z"/>
    </g>

    <text class="imprint" x="1050" y="2724" text-anchor="middle">CALERO CREEK PRESS</text>
  </svg>

  <!-- subtle grayscale grain over the whole cover to dither out gradient banding in CMYK print -->
  <rect x="0" y="0" width="4579.02" height="2850" filter="url(#grain)" opacity="0.07"/>
</svg>
